<mxfile host="app.diagrams.net" modified="2024-05-08T16:25:02.811Z" agent="Mozilla/5.0 (Macintosh; Intel Mac OS X 10_15_7) AppleWebKit/537.36 (KHTML, like Gecko) Chrome/124.0.0.0 Safari/537.36" etag="Te8zzVKzYCdCoA_UZdfY" version="24.3.1" type="device">
  <diagram id="R2lEEEUBdFMjLlhIrx00" name="Page-1">
    <mxGraphModel dx="1468" dy="946" grid="1" gridSize="10" guides="1" tooltips="1" connect="1" arrows="1" fold="1" page="1" pageScale="1" pageWidth="850" pageHeight="1100" math="0" shadow="0" extFonts="Permanent Marker^https://fonts.googleapis.com/css?family=Permanent+Marker">
      <root>
        <mxCell id="0" />
        <mxCell id="1" parent="0" />
        <mxCell id="SW5F6wZWTmIXsKLN78ri-20" value="user_table" style="shape=table;startSize=50;container=1;collapsible=1;childLayout=tableLayout;fixedRows=1;rowLines=0;fontStyle=1;align=center;resizeLast=1;html=1;direction=east;fillColor=#dae8fc;strokeColor=#6c8ebf;" vertex="1" parent="1">
          <mxGeometry x="530" y="396" width="230" height="350" as="geometry" />
        </mxCell>
        <mxCell id="SW5F6wZWTmIXsKLN78ri-21" value="" style="shape=tableRow;horizontal=0;startSize=0;swimlaneHead=0;swimlaneBody=0;fillColor=none;collapsible=0;dropTarget=0;points=[[0,0.5],[1,0.5]];portConstraint=eastwest;top=0;left=0;right=0;bottom=1;" vertex="1" parent="SW5F6wZWTmIXsKLN78ri-20">
          <mxGeometry y="50" width="230" height="30" as="geometry" />
        </mxCell>
        <mxCell id="SW5F6wZWTmIXsKLN78ri-22" value="PK" style="shape=partialRectangle;connectable=0;fillColor=none;top=0;left=0;bottom=0;right=0;fontStyle=1;overflow=hidden;whiteSpace=wrap;html=1;" vertex="1" parent="SW5F6wZWTmIXsKLN78ri-21">
          <mxGeometry width="50" height="30" as="geometry">
            <mxRectangle width="50" height="30" as="alternateBounds" />
          </mxGeometry>
        </mxCell>
        <mxCell id="SW5F6wZWTmIXsKLN78ri-23" value="employee_code（数値）" style="shape=partialRectangle;connectable=0;fillColor=none;top=0;left=0;bottom=0;right=0;align=left;spacingLeft=6;fontStyle=5;overflow=hidden;whiteSpace=wrap;html=1;" vertex="1" parent="SW5F6wZWTmIXsKLN78ri-21">
          <mxGeometry x="50" width="180" height="30" as="geometry">
            <mxRectangle width="180" height="30" as="alternateBounds" />
          </mxGeometry>
        </mxCell>
        <mxCell id="SW5F6wZWTmIXsKLN78ri-24" value="" style="shape=tableRow;horizontal=0;startSize=0;swimlaneHead=0;swimlaneBody=0;fillColor=none;collapsible=0;dropTarget=0;points=[[0,0.5],[1,0.5]];portConstraint=eastwest;top=0;left=0;right=0;bottom=0;perimeterSpacing=1;swimlaneFillColor=none;strokeWidth=1;" vertex="1" parent="SW5F6wZWTmIXsKLN78ri-20">
          <mxGeometry y="80" width="230" height="30" as="geometry" />
        </mxCell>
        <mxCell id="SW5F6wZWTmIXsKLN78ri-25" value="" style="shape=partialRectangle;connectable=0;fillColor=none;top=0;left=0;bottom=0;right=0;editable=1;overflow=hidden;whiteSpace=wrap;html=1;perimeterSpacing=1;swimlaneFillColor=none;strokeWidth=1;" vertex="1" parent="SW5F6wZWTmIXsKLN78ri-24">
          <mxGeometry width="50" height="30" as="geometry">
            <mxRectangle width="50" height="30" as="alternateBounds" />
          </mxGeometry>
        </mxCell>
        <mxCell id="SW5F6wZWTmIXsKLN78ri-26" value="user_name（文字列）" style="shape=partialRectangle;connectable=0;fillColor=none;top=0;left=0;bottom=0;right=0;align=left;spacingLeft=6;overflow=hidden;whiteSpace=wrap;html=1;perimeterSpacing=1;swimlaneFillColor=none;strokeWidth=1;" vertex="1" parent="SW5F6wZWTmIXsKLN78ri-24">
          <mxGeometry x="50" width="180" height="30" as="geometry">
            <mxRectangle width="180" height="30" as="alternateBounds" />
          </mxGeometry>
        </mxCell>
        <mxCell id="SW5F6wZWTmIXsKLN78ri-30" value="" style="shape=tableRow;horizontal=0;startSize=0;swimlaneHead=0;swimlaneBody=0;fillColor=none;collapsible=0;dropTarget=0;points=[[0,0.5],[1,0.5]];portConstraint=eastwest;top=0;left=0;right=0;bottom=0;perimeterSpacing=1;swimlaneFillColor=none;strokeWidth=1;" vertex="1" parent="SW5F6wZWTmIXsKLN78ri-20">
          <mxGeometry y="110" width="230" height="30" as="geometry" />
        </mxCell>
        <mxCell id="SW5F6wZWTmIXsKLN78ri-31" value="" style="shape=partialRectangle;connectable=0;fillColor=none;top=0;left=0;bottom=0;right=0;editable=1;overflow=hidden;whiteSpace=wrap;html=1;perimeterSpacing=1;swimlaneFillColor=none;strokeWidth=1;" vertex="1" parent="SW5F6wZWTmIXsKLN78ri-30">
          <mxGeometry width="50" height="30" as="geometry">
            <mxRectangle width="50" height="30" as="alternateBounds" />
          </mxGeometry>
        </mxCell>
        <mxCell id="SW5F6wZWTmIXsKLN78ri-32" value="email_address（文字列）" style="shape=partialRectangle;connectable=0;fillColor=none;top=0;left=0;bottom=0;right=0;align=left;spacingLeft=6;overflow=hidden;whiteSpace=wrap;html=1;perimeterSpacing=1;swimlaneFillColor=none;strokeWidth=1;" vertex="1" parent="SW5F6wZWTmIXsKLN78ri-30">
          <mxGeometry x="50" width="180" height="30" as="geometry">
            <mxRectangle width="180" height="30" as="alternateBounds" />
          </mxGeometry>
        </mxCell>
        <mxCell id="SW5F6wZWTmIXsKLN78ri-46" value="" style="shape=tableRow;horizontal=0;startSize=0;swimlaneHead=0;swimlaneBody=0;fillColor=none;collapsible=0;dropTarget=0;points=[[0,0.5],[1,0.5]];portConstraint=eastwest;top=0;left=0;right=0;bottom=0;perimeterSpacing=1;swimlaneFillColor=none;strokeWidth=1;" vertex="1" parent="SW5F6wZWTmIXsKLN78ri-20">
          <mxGeometry y="140" width="230" height="30" as="geometry" />
        </mxCell>
        <mxCell id="SW5F6wZWTmIXsKLN78ri-47" value="" style="shape=partialRectangle;connectable=0;fillColor=none;top=0;left=0;bottom=0;right=0;editable=1;overflow=hidden;whiteSpace=wrap;html=1;perimeterSpacing=1;swimlaneFillColor=none;strokeWidth=1;" vertex="1" parent="SW5F6wZWTmIXsKLN78ri-46">
          <mxGeometry width="50" height="30" as="geometry">
            <mxRectangle width="50" height="30" as="alternateBounds" />
          </mxGeometry>
        </mxCell>
        <mxCell id="SW5F6wZWTmIXsKLN78ri-48" value="position（文字列）" style="shape=partialRectangle;connectable=0;fillColor=none;top=0;left=0;bottom=0;right=0;align=left;spacingLeft=6;overflow=hidden;whiteSpace=wrap;html=1;perimeterSpacing=1;swimlaneFillColor=none;strokeWidth=1;" vertex="1" parent="SW5F6wZWTmIXsKLN78ri-46">
          <mxGeometry x="50" width="180" height="30" as="geometry">
            <mxRectangle width="180" height="30" as="alternateBounds" />
          </mxGeometry>
        </mxCell>
        <mxCell id="SW5F6wZWTmIXsKLN78ri-49" value="" style="shape=tableRow;horizontal=0;startSize=0;swimlaneHead=0;swimlaneBody=0;fillColor=none;collapsible=0;dropTarget=0;points=[[0,0.5],[1,0.5]];portConstraint=eastwest;top=0;left=0;right=0;bottom=0;perimeterSpacing=1;swimlaneFillColor=none;strokeWidth=1;" vertex="1" parent="SW5F6wZWTmIXsKLN78ri-20">
          <mxGeometry y="170" width="230" height="30" as="geometry" />
        </mxCell>
        <mxCell id="SW5F6wZWTmIXsKLN78ri-50" value="" style="shape=partialRectangle;connectable=0;fillColor=none;top=0;left=0;bottom=0;right=0;editable=1;overflow=hidden;whiteSpace=wrap;html=1;perimeterSpacing=1;swimlaneFillColor=none;strokeWidth=1;" vertex="1" parent="SW5F6wZWTmIXsKLN78ri-49">
          <mxGeometry width="50" height="30" as="geometry">
            <mxRectangle width="50" height="30" as="alternateBounds" />
          </mxGeometry>
        </mxCell>
        <mxCell id="SW5F6wZWTmIXsKLN78ri-51" value="department（文字列）" style="shape=partialRectangle;connectable=0;fillColor=none;top=0;left=0;bottom=0;right=0;align=left;spacingLeft=6;overflow=hidden;whiteSpace=wrap;html=1;perimeterSpacing=1;swimlaneFillColor=none;strokeWidth=1;" vertex="1" parent="SW5F6wZWTmIXsKLN78ri-49">
          <mxGeometry x="50" width="180" height="30" as="geometry">
            <mxRectangle width="180" height="30" as="alternateBounds" />
          </mxGeometry>
        </mxCell>
        <mxCell id="SW5F6wZWTmIXsKLN78ri-52" value="" style="shape=tableRow;horizontal=0;startSize=0;swimlaneHead=0;swimlaneBody=0;fillColor=none;collapsible=0;dropTarget=0;points=[[0,0.5],[1,0.5]];portConstraint=eastwest;top=0;left=0;right=0;bottom=0;perimeterSpacing=1;swimlaneFillColor=none;strokeWidth=1;" vertex="1" parent="SW5F6wZWTmIXsKLN78ri-20">
          <mxGeometry y="200" width="230" height="30" as="geometry" />
        </mxCell>
        <mxCell id="SW5F6wZWTmIXsKLN78ri-53" value="" style="shape=partialRectangle;connectable=0;fillColor=none;top=0;left=0;bottom=0;right=0;editable=1;overflow=hidden;whiteSpace=wrap;html=1;perimeterSpacing=1;swimlaneFillColor=none;strokeWidth=1;" vertex="1" parent="SW5F6wZWTmIXsKLN78ri-52">
          <mxGeometry width="50" height="30" as="geometry">
            <mxRectangle width="50" height="30" as="alternateBounds" />
          </mxGeometry>
        </mxCell>
        <mxCell id="SW5F6wZWTmIXsKLN78ri-54" value="division（文字列）" style="shape=partialRectangle;connectable=0;fillColor=none;top=0;left=0;bottom=0;right=0;align=left;spacingLeft=6;overflow=hidden;whiteSpace=wrap;html=1;perimeterSpacing=1;swimlaneFillColor=none;strokeWidth=1;" vertex="1" parent="SW5F6wZWTmIXsKLN78ri-52">
          <mxGeometry x="50" width="180" height="30" as="geometry">
            <mxRectangle width="180" height="30" as="alternateBounds" />
          </mxGeometry>
        </mxCell>
        <mxCell id="SW5F6wZWTmIXsKLN78ri-55" value="" style="shape=tableRow;horizontal=0;startSize=0;swimlaneHead=0;swimlaneBody=0;fillColor=none;collapsible=0;dropTarget=0;points=[[0,0.5],[1,0.5]];portConstraint=eastwest;top=0;left=0;right=0;bottom=0;perimeterSpacing=1;swimlaneFillColor=none;strokeWidth=1;" vertex="1" parent="SW5F6wZWTmIXsKLN78ri-20">
          <mxGeometry y="230" width="230" height="30" as="geometry" />
        </mxCell>
        <mxCell id="SW5F6wZWTmIXsKLN78ri-56" value="" style="shape=partialRectangle;connectable=0;fillColor=none;top=0;left=0;bottom=0;right=0;editable=1;overflow=hidden;whiteSpace=wrap;html=1;perimeterSpacing=1;swimlaneFillColor=none;strokeWidth=1;" vertex="1" parent="SW5F6wZWTmIXsKLN78ri-55">
          <mxGeometry width="50" height="30" as="geometry">
            <mxRectangle width="50" height="30" as="alternateBounds" />
          </mxGeometry>
        </mxCell>
        <mxCell id="SW5F6wZWTmIXsKLN78ri-57" value="skills（配列→文字列）" style="shape=partialRectangle;connectable=0;fillColor=none;top=0;left=0;bottom=0;right=0;align=left;spacingLeft=6;overflow=hidden;whiteSpace=wrap;html=1;perimeterSpacing=1;swimlaneFillColor=none;strokeWidth=1;" vertex="1" parent="SW5F6wZWTmIXsKLN78ri-55">
          <mxGeometry x="50" width="180" height="30" as="geometry">
            <mxRectangle width="180" height="30" as="alternateBounds" />
          </mxGeometry>
        </mxCell>
        <mxCell id="SW5F6wZWTmIXsKLN78ri-83" value="" style="shape=tableRow;horizontal=0;startSize=0;swimlaneHead=0;swimlaneBody=0;fillColor=none;collapsible=0;dropTarget=0;points=[[0,0.5],[1,0.5]];portConstraint=eastwest;top=0;left=0;right=0;bottom=0;perimeterSpacing=1;swimlaneFillColor=none;strokeWidth=1;" vertex="1" parent="SW5F6wZWTmIXsKLN78ri-20">
          <mxGeometry y="260" width="230" height="30" as="geometry" />
        </mxCell>
        <mxCell id="SW5F6wZWTmIXsKLN78ri-84" value="" style="shape=partialRectangle;connectable=0;fillColor=none;top=0;left=0;bottom=0;right=0;editable=1;overflow=hidden;whiteSpace=wrap;html=1;perimeterSpacing=1;swimlaneFillColor=none;strokeWidth=1;" vertex="1" parent="SW5F6wZWTmIXsKLN78ri-83">
          <mxGeometry width="50" height="30" as="geometry">
            <mxRectangle width="50" height="30" as="alternateBounds" />
          </mxGeometry>
        </mxCell>
        <mxCell id="SW5F6wZWTmIXsKLN78ri-85" value="certification（配列→文字列）" style="shape=partialRectangle;connectable=0;fillColor=none;top=0;left=0;bottom=0;right=0;align=left;spacingLeft=6;overflow=hidden;whiteSpace=wrap;html=1;perimeterSpacing=1;swimlaneFillColor=none;strokeWidth=1;" vertex="1" parent="SW5F6wZWTmIXsKLN78ri-83">
          <mxGeometry x="50" width="180" height="30" as="geometry">
            <mxRectangle width="180" height="30" as="alternateBounds" />
          </mxGeometry>
        </mxCell>
        <mxCell id="SW5F6wZWTmIXsKLN78ri-175" value="" style="shape=tableRow;horizontal=0;startSize=0;swimlaneHead=0;swimlaneBody=0;fillColor=none;collapsible=0;dropTarget=0;points=[[0,0.5],[1,0.5]];portConstraint=eastwest;top=0;left=0;right=0;bottom=0;perimeterSpacing=1;swimlaneFillColor=none;strokeWidth=1;" vertex="1" parent="SW5F6wZWTmIXsKLN78ri-20">
          <mxGeometry y="290" width="230" height="30" as="geometry" />
        </mxCell>
        <mxCell id="SW5F6wZWTmIXsKLN78ri-176" value="" style="shape=partialRectangle;connectable=0;fillColor=none;top=0;left=0;bottom=0;right=0;editable=1;overflow=hidden;whiteSpace=wrap;html=1;perimeterSpacing=1;swimlaneFillColor=none;strokeWidth=1;" vertex="1" parent="SW5F6wZWTmIXsKLN78ri-175">
          <mxGeometry width="50" height="30" as="geometry">
            <mxRectangle width="50" height="30" as="alternateBounds" />
          </mxGeometry>
        </mxCell>
        <mxCell id="SW5F6wZWTmIXsKLN78ri-177" value="created_date（日付）" style="shape=partialRectangle;connectable=0;fillColor=none;top=0;left=0;bottom=0;right=0;align=left;spacingLeft=6;overflow=hidden;whiteSpace=wrap;html=1;perimeterSpacing=1;swimlaneFillColor=none;strokeWidth=1;" vertex="1" parent="SW5F6wZWTmIXsKLN78ri-175">
          <mxGeometry x="50" width="180" height="30" as="geometry">
            <mxRectangle width="180" height="30" as="alternateBounds" />
          </mxGeometry>
        </mxCell>
        <mxCell id="SW5F6wZWTmIXsKLN78ri-178" value="" style="shape=tableRow;horizontal=0;startSize=0;swimlaneHead=0;swimlaneBody=0;fillColor=none;collapsible=0;dropTarget=0;points=[[0,0.5],[1,0.5]];portConstraint=eastwest;top=0;left=0;right=0;bottom=0;perimeterSpacing=1;swimlaneFillColor=none;strokeWidth=1;" vertex="1" parent="SW5F6wZWTmIXsKLN78ri-20">
          <mxGeometry y="320" width="230" height="30" as="geometry" />
        </mxCell>
        <mxCell id="SW5F6wZWTmIXsKLN78ri-179" value="" style="shape=partialRectangle;connectable=0;fillColor=none;top=0;left=0;bottom=0;right=0;editable=1;overflow=hidden;whiteSpace=wrap;html=1;perimeterSpacing=1;swimlaneFillColor=none;strokeWidth=1;" vertex="1" parent="SW5F6wZWTmIXsKLN78ri-178">
          <mxGeometry width="50" height="30" as="geometry">
            <mxRectangle width="50" height="30" as="alternateBounds" />
          </mxGeometry>
        </mxCell>
        <mxCell id="SW5F6wZWTmIXsKLN78ri-180" value="updated_date（日付）" style="shape=partialRectangle;connectable=0;fillColor=none;top=0;left=0;bottom=0;right=0;align=left;spacingLeft=6;overflow=hidden;whiteSpace=wrap;html=1;perimeterSpacing=1;swimlaneFillColor=none;strokeWidth=1;" vertex="1" parent="SW5F6wZWTmIXsKLN78ri-178">
          <mxGeometry x="50" width="180" height="30" as="geometry">
            <mxRectangle width="180" height="30" as="alternateBounds" />
          </mxGeometry>
        </mxCell>
        <mxCell id="SW5F6wZWTmIXsKLN78ri-150" value="skill_table" style="shape=table;startSize=50;container=1;collapsible=1;childLayout=tableLayout;fixedRows=1;rowLines=0;fontStyle=1;align=center;resizeLast=1;html=1;direction=east;fillColor=#d5e8d4;strokeColor=#82b366;" vertex="1" parent="1">
          <mxGeometry x="1290" y="618" width="230" height="110" as="geometry" />
        </mxCell>
        <mxCell id="SW5F6wZWTmIXsKLN78ri-151" value="" style="shape=tableRow;horizontal=0;startSize=0;swimlaneHead=0;swimlaneBody=0;fillColor=none;collapsible=0;dropTarget=0;points=[[0,0.5],[1,0.5]];portConstraint=eastwest;top=0;left=0;right=0;bottom=1;" vertex="1" parent="SW5F6wZWTmIXsKLN78ri-150">
          <mxGeometry y="50" width="230" height="30" as="geometry" />
        </mxCell>
        <mxCell id="SW5F6wZWTmIXsKLN78ri-152" value="PK" style="shape=partialRectangle;connectable=0;fillColor=none;top=0;left=0;bottom=0;right=0;fontStyle=1;overflow=hidden;whiteSpace=wrap;html=1;" vertex="1" parent="SW5F6wZWTmIXsKLN78ri-151">
          <mxGeometry width="50" height="30" as="geometry">
            <mxRectangle width="50" height="30" as="alternateBounds" />
          </mxGeometry>
        </mxCell>
        <mxCell id="SW5F6wZWTmIXsKLN78ri-153" value="skill_name（文字列）" style="shape=partialRectangle;connectable=0;fillColor=none;top=0;left=0;bottom=0;right=0;align=left;spacingLeft=6;fontStyle=5;overflow=hidden;whiteSpace=wrap;html=1;" vertex="1" parent="SW5F6wZWTmIXsKLN78ri-151">
          <mxGeometry x="50" width="180" height="30" as="geometry">
            <mxRectangle width="180" height="30" as="alternateBounds" />
          </mxGeometry>
        </mxCell>
        <mxCell id="SW5F6wZWTmIXsKLN78ri-157" value="" style="shape=tableRow;horizontal=0;startSize=0;swimlaneHead=0;swimlaneBody=0;fillColor=none;collapsible=0;dropTarget=0;points=[[0,0.5],[1,0.5]];portConstraint=eastwest;top=0;left=0;right=0;bottom=0;" vertex="1" parent="SW5F6wZWTmIXsKLN78ri-150">
          <mxGeometry y="80" width="230" height="30" as="geometry" />
        </mxCell>
        <mxCell id="SW5F6wZWTmIXsKLN78ri-158" value="" style="shape=partialRectangle;connectable=0;fillColor=none;top=0;left=0;bottom=0;right=0;editable=1;overflow=hidden;whiteSpace=wrap;html=1;" vertex="1" parent="SW5F6wZWTmIXsKLN78ri-157">
          <mxGeometry width="50" height="30" as="geometry">
            <mxRectangle width="50" height="30" as="alternateBounds" />
          </mxGeometry>
        </mxCell>
        <mxCell id="SW5F6wZWTmIXsKLN78ri-159" value="tag（配列→文字列）" style="shape=partialRectangle;connectable=0;fillColor=none;top=0;left=0;bottom=0;right=0;align=left;spacingLeft=6;overflow=hidden;whiteSpace=wrap;html=1;" vertex="1" parent="SW5F6wZWTmIXsKLN78ri-157">
          <mxGeometry x="50" width="180" height="30" as="geometry">
            <mxRectangle width="180" height="30" as="alternateBounds" />
          </mxGeometry>
        </mxCell>
        <mxCell id="SW5F6wZWTmIXsKLN78ri-184" value="tag_table" style="shape=table;startSize=50;container=1;collapsible=1;childLayout=tableLayout;fixedRows=1;rowLines=0;fontStyle=1;align=center;resizeLast=1;html=1;direction=east;fillColor=#fff2cc;strokeColor=#d6b656;" vertex="1" parent="1">
          <mxGeometry x="1710" y="848" width="230" height="80" as="geometry" />
        </mxCell>
        <mxCell id="SW5F6wZWTmIXsKLN78ri-185" value="" style="shape=tableRow;horizontal=0;startSize=0;swimlaneHead=0;swimlaneBody=0;fillColor=none;collapsible=0;dropTarget=0;points=[[0,0.5],[1,0.5]];portConstraint=eastwest;top=0;left=0;right=0;bottom=1;" vertex="1" parent="SW5F6wZWTmIXsKLN78ri-184">
          <mxGeometry y="50" width="230" height="30" as="geometry" />
        </mxCell>
        <mxCell id="SW5F6wZWTmIXsKLN78ri-186" value="PK" style="shape=partialRectangle;connectable=0;fillColor=none;top=0;left=0;bottom=0;right=0;fontStyle=1;overflow=hidden;whiteSpace=wrap;html=1;" vertex="1" parent="SW5F6wZWTmIXsKLN78ri-185">
          <mxGeometry width="50" height="30" as="geometry">
            <mxRectangle width="50" height="30" as="alternateBounds" />
          </mxGeometry>
        </mxCell>
        <mxCell id="SW5F6wZWTmIXsKLN78ri-187" value="tag_name（文字列）" style="shape=partialRectangle;connectable=0;fillColor=none;top=0;left=0;bottom=0;right=0;align=left;spacingLeft=6;fontStyle=5;overflow=hidden;whiteSpace=wrap;html=1;" vertex="1" parent="SW5F6wZWTmIXsKLN78ri-185">
          <mxGeometry x="50" width="180" height="30" as="geometry">
            <mxRectangle width="180" height="30" as="alternateBounds" />
          </mxGeometry>
        </mxCell>
        <mxCell id="SW5F6wZWTmIXsKLN78ri-207" value="" style="endArrow=classic;html=1;rounded=0;exitX=1;exitY=0.5;exitDx=0;exitDy=0;entryX=0;entryY=0.5;entryDx=0;entryDy=0;" edge="1" parent="1" source="SW5F6wZWTmIXsKLN78ri-55" target="SW5F6wZWTmIXsKLN78ri-151">
          <mxGeometry width="50" height="50" relative="1" as="geometry">
            <mxPoint x="920" y="726" as="sourcePoint" />
            <mxPoint x="1160" y="556" as="targetPoint" />
          </mxGeometry>
        </mxCell>
        <mxCell id="SW5F6wZWTmIXsKLN78ri-208" value="" style="endArrow=classic;html=1;rounded=0;exitX=1;exitY=0.5;exitDx=0;exitDy=0;entryX=0;entryY=0.5;entryDx=0;entryDy=0;" edge="1" parent="1" source="SW5F6wZWTmIXsKLN78ri-157" target="SW5F6wZWTmIXsKLN78ri-185">
          <mxGeometry width="50" height="50" relative="1" as="geometry">
            <mxPoint x="981" y="1001" as="sourcePoint" />
            <mxPoint x="1130" y="591" as="targetPoint" />
          </mxGeometry>
        </mxCell>
        <mxCell id="SW5F6wZWTmIXsKLN78ri-210" value="certification_table" style="shape=table;startSize=50;container=1;collapsible=1;childLayout=tableLayout;fixedRows=1;rowLines=0;fontStyle=1;align=center;resizeLast=1;html=1;direction=east;fillColor=#d5e8d4;strokeColor=#82b366;" vertex="1" parent="1">
          <mxGeometry x="1290" y="788" width="230" height="140" as="geometry" />
        </mxCell>
        <mxCell id="SW5F6wZWTmIXsKLN78ri-211" value="" style="shape=tableRow;horizontal=0;startSize=0;swimlaneHead=0;swimlaneBody=0;fillColor=none;collapsible=0;dropTarget=0;points=[[0,0.5],[1,0.5]];portConstraint=eastwest;top=0;left=0;right=0;bottom=1;" vertex="1" parent="SW5F6wZWTmIXsKLN78ri-210">
          <mxGeometry y="50" width="230" height="30" as="geometry" />
        </mxCell>
        <mxCell id="SW5F6wZWTmIXsKLN78ri-212" value="PK" style="shape=partialRectangle;connectable=0;fillColor=none;top=0;left=0;bottom=0;right=0;fontStyle=1;overflow=hidden;whiteSpace=wrap;html=1;" vertex="1" parent="SW5F6wZWTmIXsKLN78ri-211">
          <mxGeometry width="50" height="30" as="geometry">
            <mxRectangle width="50" height="30" as="alternateBounds" />
          </mxGeometry>
        </mxCell>
        <mxCell id="SW5F6wZWTmIXsKLN78ri-213" value="certification_name（文字列）" style="shape=partialRectangle;connectable=0;fillColor=none;top=0;left=0;bottom=0;right=0;align=left;spacingLeft=6;fontStyle=5;overflow=hidden;whiteSpace=wrap;html=1;" vertex="1" parent="SW5F6wZWTmIXsKLN78ri-211">
          <mxGeometry x="50" width="180" height="30" as="geometry">
            <mxRectangle width="180" height="30" as="alternateBounds" />
          </mxGeometry>
        </mxCell>
        <mxCell id="SW5F6wZWTmIXsKLN78ri-217" value="" style="shape=tableRow;horizontal=0;startSize=0;swimlaneHead=0;swimlaneBody=0;fillColor=none;collapsible=0;dropTarget=0;points=[[0,0.5],[1,0.5]];portConstraint=eastwest;top=0;left=0;right=0;bottom=0;" vertex="1" parent="SW5F6wZWTmIXsKLN78ri-210">
          <mxGeometry y="80" width="230" height="30" as="geometry" />
        </mxCell>
        <mxCell id="SW5F6wZWTmIXsKLN78ri-218" value="" style="shape=partialRectangle;connectable=0;fillColor=none;top=0;left=0;bottom=0;right=0;editable=1;overflow=hidden;whiteSpace=wrap;html=1;" vertex="1" parent="SW5F6wZWTmIXsKLN78ri-217">
          <mxGeometry width="50" height="30" as="geometry">
            <mxRectangle width="50" height="30" as="alternateBounds" />
          </mxGeometry>
        </mxCell>
        <mxCell id="SW5F6wZWTmIXsKLN78ri-219" value="vender（文字列）" style="shape=partialRectangle;connectable=0;fillColor=none;top=0;left=0;bottom=0;right=0;align=left;spacingLeft=6;overflow=hidden;whiteSpace=wrap;html=1;" vertex="1" parent="SW5F6wZWTmIXsKLN78ri-217">
          <mxGeometry x="50" width="180" height="30" as="geometry">
            <mxRectangle width="180" height="30" as="alternateBounds" />
          </mxGeometry>
        </mxCell>
        <mxCell id="SW5F6wZWTmIXsKLN78ri-236" value="" style="shape=tableRow;horizontal=0;startSize=0;swimlaneHead=0;swimlaneBody=0;fillColor=none;collapsible=0;dropTarget=0;points=[[0,0.5],[1,0.5]];portConstraint=eastwest;top=0;left=0;right=0;bottom=0;" vertex="1" parent="SW5F6wZWTmIXsKLN78ri-210">
          <mxGeometry y="110" width="230" height="30" as="geometry" />
        </mxCell>
        <mxCell id="SW5F6wZWTmIXsKLN78ri-237" value="" style="shape=partialRectangle;connectable=0;fillColor=none;top=0;left=0;bottom=0;right=0;editable=1;overflow=hidden;whiteSpace=wrap;html=1;" vertex="1" parent="SW5F6wZWTmIXsKLN78ri-236">
          <mxGeometry width="50" height="30" as="geometry">
            <mxRectangle width="50" height="30" as="alternateBounds" />
          </mxGeometry>
        </mxCell>
        <mxCell id="SW5F6wZWTmIXsKLN78ri-238" value="tag（配列→文字列）" style="shape=partialRectangle;connectable=0;fillColor=none;top=0;left=0;bottom=0;right=0;align=left;spacingLeft=6;overflow=hidden;whiteSpace=wrap;html=1;" vertex="1" parent="SW5F6wZWTmIXsKLN78ri-236">
          <mxGeometry x="50" width="180" height="30" as="geometry">
            <mxRectangle width="180" height="30" as="alternateBounds" />
          </mxGeometry>
        </mxCell>
        <mxCell id="SW5F6wZWTmIXsKLN78ri-239" value="" style="endArrow=classic;html=1;rounded=0;exitX=1;exitY=0.5;exitDx=0;exitDy=0;entryX=0;entryY=0.5;entryDx=0;entryDy=0;" edge="1" parent="1" source="SW5F6wZWTmIXsKLN78ri-236" target="SW5F6wZWTmIXsKLN78ri-185">
          <mxGeometry width="50" height="50" relative="1" as="geometry">
            <mxPoint x="1360" y="651" as="sourcePoint" />
            <mxPoint x="1500" y="741" as="targetPoint" />
          </mxGeometry>
        </mxCell>
        <mxCell id="SW5F6wZWTmIXsKLN78ri-240" value="" style="endArrow=classic;html=1;rounded=0;entryX=0;entryY=0.5;entryDx=0;entryDy=0;exitX=1;exitY=0.5;exitDx=0;exitDy=0;" edge="1" parent="1" source="SW5F6wZWTmIXsKLN78ri-83" target="SW5F6wZWTmIXsKLN78ri-211">
          <mxGeometry width="50" height="50" relative="1" as="geometry">
            <mxPoint x="770" y="666" as="sourcePoint" />
            <mxPoint x="920" y="241" as="targetPoint" />
          </mxGeometry>
        </mxCell>
        <mxCell id="SW5F6wZWTmIXsKLN78ri-241" value="department_table" style="shape=table;startSize=50;container=1;collapsible=1;childLayout=tableLayout;fixedRows=1;rowLines=0;fontStyle=1;align=center;resizeLast=1;html=1;direction=east;fillColor=#d5e8d4;strokeColor=#82b366;" vertex="1" parent="1">
          <mxGeometry x="1290" y="295" width="230" height="80" as="geometry" />
        </mxCell>
        <mxCell id="SW5F6wZWTmIXsKLN78ri-242" value="" style="shape=tableRow;horizontal=0;startSize=0;swimlaneHead=0;swimlaneBody=0;fillColor=none;collapsible=0;dropTarget=0;points=[[0,0.5],[1,0.5]];portConstraint=eastwest;top=0;left=0;right=0;bottom=1;" vertex="1" parent="SW5F6wZWTmIXsKLN78ri-241">
          <mxGeometry y="50" width="230" height="30" as="geometry" />
        </mxCell>
        <mxCell id="SW5F6wZWTmIXsKLN78ri-243" value="PK" style="shape=partialRectangle;connectable=0;fillColor=none;top=0;left=0;bottom=0;right=0;fontStyle=1;overflow=hidden;whiteSpace=wrap;html=1;" vertex="1" parent="SW5F6wZWTmIXsKLN78ri-242">
          <mxGeometry width="50" height="30" as="geometry">
            <mxRectangle width="50" height="30" as="alternateBounds" />
          </mxGeometry>
        </mxCell>
        <mxCell id="SW5F6wZWTmIXsKLN78ri-244" value="department（文字列）" style="shape=partialRectangle;connectable=0;fillColor=none;top=0;left=0;bottom=0;right=0;align=left;spacingLeft=6;fontStyle=5;overflow=hidden;whiteSpace=wrap;html=1;" vertex="1" parent="SW5F6wZWTmIXsKLN78ri-242">
          <mxGeometry x="50" width="180" height="30" as="geometry">
            <mxRectangle width="180" height="30" as="alternateBounds" />
          </mxGeometry>
        </mxCell>
        <mxCell id="SW5F6wZWTmIXsKLN78ri-248" value="division_table" style="shape=table;startSize=50;container=1;collapsible=1;childLayout=tableLayout;fixedRows=1;rowLines=0;fontStyle=1;align=center;resizeLast=1;html=1;direction=east;fillColor=#d5e8d4;strokeColor=#82b366;" vertex="1" parent="1">
          <mxGeometry x="1290" y="465" width="230" height="80" as="geometry" />
        </mxCell>
        <mxCell id="SW5F6wZWTmIXsKLN78ri-249" value="" style="shape=tableRow;horizontal=0;startSize=0;swimlaneHead=0;swimlaneBody=0;fillColor=none;collapsible=0;dropTarget=0;points=[[0,0.5],[1,0.5]];portConstraint=eastwest;top=0;left=0;right=0;bottom=1;" vertex="1" parent="SW5F6wZWTmIXsKLN78ri-248">
          <mxGeometry y="50" width="230" height="30" as="geometry" />
        </mxCell>
        <mxCell id="SW5F6wZWTmIXsKLN78ri-250" value="PK" style="shape=partialRectangle;connectable=0;fillColor=none;top=0;left=0;bottom=0;right=0;fontStyle=1;overflow=hidden;whiteSpace=wrap;html=1;" vertex="1" parent="SW5F6wZWTmIXsKLN78ri-249">
          <mxGeometry width="50" height="30" as="geometry">
            <mxRectangle width="50" height="30" as="alternateBounds" />
          </mxGeometry>
        </mxCell>
        <mxCell id="SW5F6wZWTmIXsKLN78ri-251" value="division（文字列）" style="shape=partialRectangle;connectable=0;fillColor=none;top=0;left=0;bottom=0;right=0;align=left;spacingLeft=6;fontStyle=5;overflow=hidden;whiteSpace=wrap;html=1;" vertex="1" parent="SW5F6wZWTmIXsKLN78ri-249">
          <mxGeometry x="50" width="180" height="30" as="geometry">
            <mxRectangle width="180" height="30" as="alternateBounds" />
          </mxGeometry>
        </mxCell>
        <mxCell id="SW5F6wZWTmIXsKLN78ri-258" value="" style="endArrow=classic;html=1;rounded=0;exitX=1;exitY=0.5;exitDx=0;exitDy=0;entryX=0;entryY=0.5;entryDx=0;entryDy=0;" edge="1" parent="1" source="SW5F6wZWTmIXsKLN78ri-52" target="SW5F6wZWTmIXsKLN78ri-249">
          <mxGeometry width="50" height="50" relative="1" as="geometry">
            <mxPoint x="771" y="651" as="sourcePoint" />
            <mxPoint x="910" y="701" as="targetPoint" />
          </mxGeometry>
        </mxCell>
        <mxCell id="SW5F6wZWTmIXsKLN78ri-259" value="" style="endArrow=classic;html=1;rounded=0;exitX=1;exitY=0.5;exitDx=0;exitDy=0;entryX=0;entryY=0.5;entryDx=0;entryDy=0;" edge="1" parent="1" source="SW5F6wZWTmIXsKLN78ri-49" target="SW5F6wZWTmIXsKLN78ri-242">
          <mxGeometry width="50" height="50" relative="1" as="geometry">
            <mxPoint x="771" y="621" as="sourcePoint" />
            <mxPoint x="910" y="484" as="targetPoint" />
          </mxGeometry>
        </mxCell>
        <mxCell id="SW5F6wZWTmIXsKLN78ri-260" value="position_table" style="shape=table;startSize=50;container=1;collapsible=1;childLayout=tableLayout;fixedRows=1;rowLines=0;fontStyle=1;align=center;resizeLast=1;html=1;direction=east;fillColor=#d5e8d4;strokeColor=#82b366;" vertex="1" parent="1">
          <mxGeometry x="1290" y="120" width="230" height="80" as="geometry" />
        </mxCell>
        <mxCell id="SW5F6wZWTmIXsKLN78ri-261" value="" style="shape=tableRow;horizontal=0;startSize=0;swimlaneHead=0;swimlaneBody=0;fillColor=none;collapsible=0;dropTarget=0;points=[[0,0.5],[1,0.5]];portConstraint=eastwest;top=0;left=0;right=0;bottom=1;" vertex="1" parent="SW5F6wZWTmIXsKLN78ri-260">
          <mxGeometry y="50" width="230" height="30" as="geometry" />
        </mxCell>
        <mxCell id="SW5F6wZWTmIXsKLN78ri-262" value="PK" style="shape=partialRectangle;connectable=0;fillColor=none;top=0;left=0;bottom=0;right=0;fontStyle=1;overflow=hidden;whiteSpace=wrap;html=1;" vertex="1" parent="SW5F6wZWTmIXsKLN78ri-261">
          <mxGeometry width="50" height="30" as="geometry">
            <mxRectangle width="50" height="30" as="alternateBounds" />
          </mxGeometry>
        </mxCell>
        <mxCell id="SW5F6wZWTmIXsKLN78ri-263" value="position（文字列）" style="shape=partialRectangle;connectable=0;fillColor=none;top=0;left=0;bottom=0;right=0;align=left;spacingLeft=6;fontStyle=5;overflow=hidden;whiteSpace=wrap;html=1;" vertex="1" parent="SW5F6wZWTmIXsKLN78ri-261">
          <mxGeometry x="50" width="180" height="30" as="geometry">
            <mxRectangle width="180" height="30" as="alternateBounds" />
          </mxGeometry>
        </mxCell>
        <mxCell id="SW5F6wZWTmIXsKLN78ri-267" value="" style="endArrow=classic;html=1;rounded=0;exitX=1;exitY=0.5;exitDx=0;exitDy=0;entryX=0;entryY=0.5;entryDx=0;entryDy=0;" edge="1" parent="1" source="SW5F6wZWTmIXsKLN78ri-46" target="SW5F6wZWTmIXsKLN78ri-261">
          <mxGeometry width="50" height="50" relative="1" as="geometry">
            <mxPoint x="771" y="591" as="sourcePoint" />
            <mxPoint x="910" y="314" as="targetPoint" />
          </mxGeometry>
        </mxCell>
        <mxCell id="SW5F6wZWTmIXsKLN78ri-279" style="edgeStyle=orthogonalEdgeStyle;rounded=0;orthogonalLoop=1;jettySize=auto;html=1;entryX=0;entryY=0.5;entryDx=0;entryDy=0;" edge="1" parent="1" source="SW5F6wZWTmIXsKLN78ri-274" target="SW5F6wZWTmIXsKLN78ri-46">
          <mxGeometry relative="1" as="geometry" />
        </mxCell>
        <mxCell id="SW5F6wZWTmIXsKLN78ri-274" value="一般ユーザ" style="shape=umlActor;verticalLabelPosition=bottom;verticalAlign=top;html=1;outlineConnect=0;" vertex="1" parent="1">
          <mxGeometry x="140" y="521" width="30" height="60" as="geometry" />
        </mxCell>
        <mxCell id="SW5F6wZWTmIXsKLN78ri-278" value="&lt;div&gt;&lt;br&gt;&lt;/div&gt;&lt;div&gt;プルダウン形式で選択できる&lt;/div&gt;&lt;div&gt;&lt;br&gt;&lt;/div&gt;・ユーザ初回登録&lt;div&gt;→&lt;span style=&quot;background-color: initial;&quot;&gt;&amp;nbsp;初回だけcreated_dateが登録される&lt;/span&gt;&lt;/div&gt;&lt;div&gt;&lt;div&gt;&lt;br&gt;&lt;/div&gt;&lt;div&gt;・ユーザ情報編集&lt;/div&gt;&lt;div&gt;・ユーザスキル編集&lt;/div&gt;&lt;div&gt;・ユーザ資格編集&lt;/div&gt;&lt;div&gt;→変更時は&lt;span style=&quot;background-color: initial;&quot;&gt;updated_dateが更新される&lt;/span&gt;&lt;/div&gt;&lt;/div&gt;&lt;div&gt;&lt;span style=&quot;background-color: initial;&quot;&gt;&lt;br&gt;&lt;/span&gt;&lt;/div&gt;" style="text;html=1;align=left;verticalAlign=middle;resizable=0;points=[];autosize=1;strokeColor=#b85450;fillColor=#f8cecc;" vertex="1" parent="1">
          <mxGeometry x="230" y="455" width="230" height="170" as="geometry" />
        </mxCell>
        <mxCell id="SW5F6wZWTmIXsKLN78ri-281" value="ユーザスキルはプルダウンから複数選択可能にする&lt;div&gt;&lt;br&gt;&lt;/div&gt;&lt;div&gt;選択肢はskill_tableから画面に表示させる&lt;/div&gt;&lt;div&gt;&lt;br&gt;&lt;div&gt;user_table＞&lt;span style=&quot;background-color: initial;&quot;&gt;skillsにはリスト型で格納される&lt;/span&gt;&lt;/div&gt;&lt;/div&gt;" style="text;html=1;align=left;verticalAlign=middle;resizable=0;points=[];autosize=1;strokeColor=#b85450;fillColor=#f8cecc;" vertex="1" parent="1">
          <mxGeometry x="870" y="608" width="300" height="90" as="geometry" />
        </mxCell>
        <mxCell id="SW5F6wZWTmIXsKLN78ri-283" value="作りとしては同上" style="text;html=1;align=left;verticalAlign=middle;resizable=0;points=[];autosize=1;strokeColor=#b85450;fillColor=#f8cecc;" vertex="1" parent="1">
          <mxGeometry x="980" y="746" width="120" height="30" as="geometry" />
        </mxCell>
        <mxCell id="SW5F6wZWTmIXsKLN78ri-284" value="サイト管理者" style="shape=umlActor;verticalLabelPosition=bottom;verticalAlign=top;html=1;outlineConnect=0;" vertex="1" parent="1">
          <mxGeometry x="1839" y="220" width="30" height="60" as="geometry" />
        </mxCell>
        <mxCell id="SW5F6wZWTmIXsKLN78ri-293" value="緑テーブルと黄テーブルはサイト管理者が管理できる&lt;div&gt;一般ユーザは編集できない&lt;/div&gt;" style="text;html=1;align=left;verticalAlign=middle;resizable=0;points=[];autosize=1;strokeColor=#666666;fillColor=#f5f5f5;fontColor=#333333;" vertex="1" parent="1">
          <mxGeometry x="1700" y="310" width="310" height="40" as="geometry" />
        </mxCell>
        <mxCell id="SW5F6wZWTmIXsKLN78ri-295" value="一般ユーザ" style="shape=umlActor;verticalLabelPosition=bottom;verticalAlign=top;html=1;outlineConnect=0;" vertex="1" parent="1">
          <mxGeometry x="2110" y="520" width="30" height="60" as="geometry" />
        </mxCell>
        <mxCell id="SW5F6wZWTmIXsKLN78ri-297" value="" style="endArrow=classic;html=1;rounded=0;entryX=1;entryY=0.5;entryDx=0;entryDy=0;" edge="1" parent="1" target="SW5F6wZWTmIXsKLN78ri-151">
          <mxGeometry width="50" height="50" relative="1" as="geometry">
            <mxPoint x="2100" y="560" as="sourcePoint" />
            <mxPoint x="1630" y="340" as="targetPoint" />
          </mxGeometry>
        </mxCell>
        <mxCell id="SW5F6wZWTmIXsKLN78ri-298" value="" style="endArrow=classic;html=1;rounded=0;entryX=1;entryY=0.5;entryDx=0;entryDy=0;" edge="1" parent="1" target="SW5F6wZWTmIXsKLN78ri-211">
          <mxGeometry width="50" height="50" relative="1" as="geometry">
            <mxPoint x="2100" y="560" as="sourcePoint" />
            <mxPoint x="1530" y="693" as="targetPoint" />
          </mxGeometry>
        </mxCell>
        <mxCell id="SW5F6wZWTmIXsKLN78ri-301" value="" style="endArrow=classic;html=1;rounded=0;entryX=1;entryY=0.5;entryDx=0;entryDy=0;" edge="1" parent="1" target="SW5F6wZWTmIXsKLN78ri-185">
          <mxGeometry width="50" height="50" relative="1" as="geometry">
            <mxPoint x="2100" y="560" as="sourcePoint" />
            <mxPoint x="1530" y="893" as="targetPoint" />
          </mxGeometry>
        </mxCell>
        <mxCell id="SW5F6wZWTmIXsKLN78ri-302" value="&lt;div&gt;&lt;br&gt;&lt;/div&gt;&lt;div&gt;検索窓から下記検索して&lt;span style=&quot;background-color: initial;&quot;&gt;保有者を確認できる&lt;/span&gt;&lt;/div&gt;・skill_name&lt;div&gt;・certification_name&lt;/div&gt;&lt;div&gt;&lt;br&gt;&lt;/div&gt;" style="text;html=1;align=left;verticalAlign=middle;resizable=0;points=[];autosize=1;strokeColor=#b85450;fillColor=#f8cecc;" vertex="1" parent="1">
          <mxGeometry x="1680" y="608" width="260" height="90" as="geometry" />
        </mxCell>
        <mxCell id="SW5F6wZWTmIXsKLN78ri-303" value="&lt;div&gt;&lt;br&gt;&lt;/div&gt;&lt;div&gt;検索窓から下記検索してスキル名と資格名&lt;span style=&quot;background-color: initial;&quot;&gt;を確認できる&lt;/span&gt;&lt;/div&gt;・tag_name&lt;div&gt;&lt;br&gt;&lt;/div&gt;&lt;div&gt;検索ヒットした下記を押下すると、保有者を確認できる&lt;/div&gt;&lt;div&gt;・skill_name&lt;div&gt;・certification_name&lt;/div&gt;&lt;/div&gt;" style="text;html=1;align=left;verticalAlign=middle;resizable=0;points=[];autosize=1;strokeColor=#b85450;fillColor=#f8cecc;" vertex="1" parent="1">
          <mxGeometry x="1860" y="720" width="320" height="110" as="geometry" />
        </mxCell>
        <mxCell id="SW5F6wZWTmIXsKLN78ri-305" value="" style="shape=image;html=1;verticalAlign=top;verticalLabelPosition=bottom;labelBackgroundColor=#ffffff;imageAspect=0;aspect=fixed;image=https://cdn2.iconfinder.com/data/icons/bitsies/128/Crown-128.png" vertex="1" parent="1">
          <mxGeometry x="1815" y="140" width="80" height="80" as="geometry" />
        </mxCell>
      </root>
    </mxGraphModel>
  </diagram>
</mxfile>
